<svg viewBox="0 0 106 104" fill="none" xmlns="http://www.w3.org/2000/svg">
<path d="M33.2926 86.6667H83.656L96.7943 99.6667V54.1667C96.7943 49.4 92.8528 45.5 88.0355 45.5H33.2926C28.4752 45.5 24.5337 49.4 24.5337 54.1667V78C24.5337 82.7667 28.4752 86.6667 33.2926 86.6667Z" fill="#00AB58"/>
<path d="M63.5105 71.0669H55.6275L54.0947 75.6169H49.2773L57.3793 53.9502H61.5398L69.6417 75.6169H64.8243L63.5105 71.0669ZM56.7224 67.6002H62.1967L59.569 59.3669L56.7224 67.6002Z" fill="#1B5E20"/>
<path d="M72.7073 54.1665H22.3439L9.20557 67.1665V17.3332C9.20557 12.5665 13.1471 8.6665 17.9644 8.6665H72.7073C77.5247 8.6665 81.4662 12.5665 81.4662 17.3332V45.4998C81.4662 50.2665 77.5247 54.1665 72.7073 54.1665Z" fill="#00E676"/>
<path d="M56.0656 30.7665C56.0656 32.9332 55.6277 34.6665 54.9708 36.1832C54.3139 37.6999 53.438 38.9999 52.1242 39.8665L55.8467 42.6832L53 45.2832L48.1827 41.5999C47.7447 41.5999 47.0878 41.8165 46.4309 41.8165C45.1171 41.8165 43.8032 41.5999 42.4894 41.1665C41.3945 40.7332 40.2997 39.8665 39.4238 38.9999C38.5479 38.1332 37.891 36.8332 37.4531 35.5332C37.0151 34.2332 36.7961 32.7165 36.7961 30.9832V30.1165C36.7961 28.3832 37.0151 26.8665 37.4531 25.5665C37.891 24.2665 38.5479 22.9665 39.4238 22.0999C40.2997 21.2332 41.1756 20.3665 42.4894 19.9332C43.5843 19.4999 44.8981 19.2832 46.4309 19.2832C47.7447 19.2832 49.0585 19.4999 50.3724 19.9332C51.4672 20.3665 52.5621 21.2332 53.438 22.0999C54.3139 22.9665 54.9708 24.2665 55.4087 25.5665C55.8467 26.8665 56.0656 28.3832 56.0656 30.1165V30.7665ZM51.2483 29.6832C51.2483 27.2999 50.8103 25.5665 49.9344 24.4832C49.0586 23.1832 47.9637 22.7499 46.4309 22.7499C44.8981 22.7499 43.5843 23.3999 42.9273 24.4832C42.0515 25.7832 41.6135 27.5165 41.6135 29.6832V30.7665C41.6135 31.8499 41.8325 32.9332 42.0515 33.7999C42.2704 34.6665 42.4894 35.5332 42.9273 35.9665C43.3653 36.6165 43.8032 37.0499 44.4601 37.2665C45.1171 37.4832 45.774 37.6999 46.4309 37.6999C47.9637 37.6999 49.2775 37.0499 49.9344 35.9665C50.8103 34.6665 51.2483 32.9332 51.2483 30.5499V29.6832Z" fill="#00AB58"/>
</svg>
