<svg viewBox="0 0 106 104" fill="none" xmlns="http://www.w3.org/2000/svg">
<path d="M63.5312 0H24.0958C16.8492 0 10.9575 5.82969 10.9575 13V91C10.9575 98.1703 16.8492 104 24.0958 104H81.9043C89.1509 104 95.0426 98.1703 95.0426 91V31.2L63.5312 0ZM84.922 28.6H74.0213C69.6693 28.6 66.1384 25.1063 66.1384 20.8V9.97344L84.922 28.6ZM89.7873 91C89.7873 95.3063 86.2564 98.8 81.9043 98.8H24.0958C19.7438 98.8 16.2128 95.3063 16.2128 91V13C16.2128 8.69375 19.7438 5.2 24.0958 5.2H60.883V20.8C60.883 27.9703 66.7747 33.8 74.0213 33.8H89.7873V91Z" fill="#00E676"/>
<path d="M41.8735 58.9469L30.4801 65.0204C29.6179 65.5282 29.3511 65.8329 29.3511 66.7469V68.4329C29.3511 69.3469 29.6179 69.611 30.4801 70.1188L41.8735 76.2126C42.941 76.761 43.3105 76.4157 43.3105 75.1766V72.861C43.3105 71.4188 43.1052 71.1344 42.0377 70.6266L35.7355 67.5798V67.4173L42.0788 64.3501C43.0847 63.8423 43.3105 63.5782 43.3105 62.1157V60.0032C43.3105 58.7438 42.941 58.4188 41.8735 58.9469Z" fill="#00E676"/>
<path d="M59.4666 54.6001H56.7157C55.7509 54.6001 55.3403 54.8438 55.0324 55.7376L46.0409 79.4423C45.774 80.2548 45.9382 80.5798 46.862 80.5798H49.6128C50.5777 80.5798 50.9882 80.336 51.2962 79.4423L60.2877 55.7376C60.5956 54.9454 60.3903 54.6001 59.4666 54.6001Z" fill="#00E676"/>
<path d="M62.6484 59.9625V62.2578C62.6484 63.7 62.8948 63.9844 63.9623 64.4922L70.2645 67.5391V67.7016L63.9212 70.7688C62.9358 71.2766 62.6484 71.6016 62.6484 73.0032V75.1969C62.6484 76.4157 63.1206 76.7407 64.1265 76.2125L75.5199 70.1391C76.3821 69.6313 76.6489 69.2657 76.6489 68.4125V66.7266C76.6489 65.8938 76.3821 65.5485 75.5199 65.0407L64.1265 58.9469C63.1411 58.3782 62.6484 58.7032 62.6484 59.9625Z" fill="#00E676"/>
</svg>
