<svg viewBox="0 0 115 47" fill="none" xmlns="http://www.w3.org/2000/svg">
<path d="M31.4801 23.6493L25.1196 11.6538H20.2935V20.8865H24.3298V17.5098L29.6385 27.5061H33.2653L38.5883 17.41V32.1272H42.624V11.6538H37.7985L31.4801 23.6493Z" fill="white"/>
<path d="M49.051 11.626H44.8542V32.1279H49.051V11.626Z" fill="#00E676"/>
<path d="M23.9452 21.9195H22.5183V21.9183H14.0921V26.0503H17.2548C16.0169 28.116 13.7581 29.503 11.1801 29.503C7.27633 29.503 4.10051 26.3272 4.10051 22.4234C4.10051 18.5196 7.27633 15.3438 11.1801 15.3438C12.7419 15.3438 14.2442 15.859 15.4667 16.7891C15.4857 16.8033 15.5118 16.8081 15.5427 16.8081L18.4101 13.9407C18.4048 13.908 18.3929 13.8795 18.3691 13.8599C16.3688 12.1804 13.8288 11.2427 11.1807 11.2427C5.0157 11.2427 0 16.2584 0 22.4234C0 28.5884 5.0157 33.6041 11.1807 33.6041C14.9205 33.6041 18.2366 31.7583 20.2678 28.9301V32.1452H24.3523V22.3248C24.3523 22.1007 24.171 21.9195 23.947 21.9195H23.9452Z" fill="#00E676"/>
<path d="M53.8618 6.29934L48.0486 0.48612C47.7241 0.161645 47.298 -0.00059265 46.8725 1.62667e-06C46.447 1.62667e-06 46.0209 0.161645 45.6965 0.48612L39.8832 6.29934C39.2349 6.94769 39.2349 7.99897 39.8832 8.64732C40.2077 8.9718 40.6326 9.13344 41.0575 9.13344C41.4824 9.13344 41.9073 8.9712 42.2318 8.64732L45.8646 5.01451C46.4203 4.45886 47.3212 4.45886 47.8775 5.01451V5.01094C47.8775 5.01094 47.8804 5.01332 47.8816 5.01451L51.5144 8.64732C51.8389 8.9718 52.2638 9.13344 52.6887 9.13344C53.1136 9.13344 53.5385 8.9712 53.8624 8.64732C54.5108 7.99897 54.5108 6.94769 53.8624 6.29934H53.8618Z" fill="#00E676"/>
<path d="M63.9979 32.3301H58.3473V14.8755H64.1768C65.8871 14.8755 67.3558 15.225 68.5831 15.9238C69.8104 16.617 70.7507 17.6142 71.4041 18.9153C72.0632 20.2108 72.3928 21.7647 72.3928 23.5772C72.3928 25.3954 72.0604 26.9579 71.3956 28.2647C70.7365 29.5716 69.782 30.5772 68.532 31.2818C67.282 31.9806 65.7706 32.3301 63.9979 32.3301ZM60.9808 30.0289H63.853C65.1825 30.0289 66.2876 29.7789 67.1683 29.2789C68.049 28.7733 68.7081 28.0431 69.1456 27.0886C69.5831 26.1284 69.8018 24.9579 69.8018 23.5772C69.8018 22.2079 69.5831 21.046 69.1456 20.0914C68.7138 19.1369 68.0689 18.4125 67.2109 17.9181C66.353 17.4238 65.2876 17.1767 64.0149 17.1767H60.9808V30.0289ZM80.9773 32.5943C79.75 32.5943 78.679 32.313 77.7642 31.7505C76.8494 31.188 76.1392 30.4011 75.6335 29.3897C75.1278 28.3784 74.875 27.1966 74.875 25.8443C74.875 24.4863 75.1278 23.2988 75.6335 22.2818C76.1392 21.2647 76.8494 20.475 77.7642 19.9125C78.679 19.35 79.75 19.0687 80.9773 19.0687C82.2045 19.0687 83.2756 19.35 84.1903 19.9125C85.1051 20.475 85.8153 21.2647 86.321 22.2818C86.8267 23.2988 87.0795 24.4863 87.0795 25.8443C87.0795 27.1966 86.8267 28.3784 86.321 29.3897C85.8153 30.4011 85.1051 31.188 84.1903 31.7505C83.2756 32.313 82.2045 32.5943 80.9773 32.5943ZM80.9858 30.4551C81.7813 30.4551 82.4403 30.2449 82.9631 29.8244C83.4858 29.4039 83.8722 28.8443 84.1222 28.1454C84.3778 27.4466 84.5057 26.6767 84.5057 25.8358C84.5057 25.0005 84.3778 24.2335 84.1222 23.5346C83.8722 22.8301 83.4858 22.2647 82.9631 21.8386C82.4403 21.4125 81.7813 21.1994 80.9858 21.1994C80.1847 21.1994 79.5199 21.4125 78.9915 21.8386C78.4688 22.2647 78.0795 22.8301 77.8239 23.5346C77.5739 24.2335 77.4489 25.0005 77.4489 25.8358C77.4489 26.6767 77.5739 27.4466 77.8239 28.1454C78.0795 28.8443 78.4688 29.4039 78.9915 29.8244C79.5199 30.2449 80.1847 30.4551 80.9858 30.4551ZM95.4382 32.5943C94.1712 32.5943 93.0803 32.3074 92.1655 31.7335C91.2564 31.1539 90.5575 30.3556 90.0689 29.3386C89.5803 28.3216 89.3359 27.1568 89.3359 25.8443C89.3359 24.5147 89.5859 23.3414 90.0859 22.3244C90.5859 21.3017 91.2905 20.5034 92.1996 19.9295C93.1087 19.3556 94.1797 19.0687 95.4126 19.0687C96.407 19.0687 97.2933 19.2534 98.0717 19.6227C98.8501 19.9863 99.478 20.4977 99.9553 21.1568C100.438 21.8159 100.725 22.5858 100.816 23.4664H98.3359C98.1996 22.8528 97.8871 22.3244 97.3984 21.8812C96.9155 21.438 96.2678 21.2164 95.4553 21.2164C94.745 21.2164 94.1229 21.4039 93.5888 21.7789C93.0604 22.1483 92.6484 22.6767 92.353 23.3642C92.0575 24.046 91.9098 24.8528 91.9098 25.7846C91.9098 26.7392 92.0547 27.563 92.3445 28.2562C92.6342 28.9494 93.0433 29.4863 93.5717 29.867C94.1058 30.2477 94.7337 30.438 95.4553 30.438C95.9382 30.438 96.3757 30.35 96.7678 30.1738C97.1655 29.992 97.4979 29.7335 97.7649 29.3983C98.0376 29.063 98.228 28.6596 98.3359 28.188H100.816C100.725 29.0346 100.45 29.7903 99.9893 30.4551C99.5291 31.1199 98.9126 31.6426 98.1399 32.0233C97.3729 32.4039 96.4723 32.5943 95.4382 32.5943ZM113.351 22.4352L111.041 22.8443C110.945 22.5488 110.791 22.2676 110.581 22.0005C110.376 21.7335 110.098 21.5147 109.746 21.3443C109.393 21.1738 108.953 21.0886 108.425 21.0886C107.703 21.0886 107.101 21.2505 106.618 21.5744C106.135 21.8926 105.893 22.3045 105.893 22.8102C105.893 23.2477 106.055 23.6 106.379 23.867C106.703 24.1341 107.226 24.3528 107.947 24.5233L110.027 25.0005C111.232 25.2789 112.129 25.7079 112.72 26.2875C113.311 26.867 113.607 27.6199 113.607 28.546C113.607 29.3301 113.379 30.0289 112.925 30.6426C112.476 31.2505 111.848 31.7278 111.041 32.0744C110.24 32.421 109.311 32.5943 108.254 32.5943C106.788 32.5943 105.592 32.2818 104.666 31.6568C103.74 31.0261 103.172 30.1312 102.962 28.9721L105.425 28.5971C105.578 29.2392 105.893 29.725 106.371 30.0545C106.848 30.3784 107.47 30.5403 108.237 30.5403C109.072 30.5403 109.74 30.367 110.24 30.0204C110.74 29.6681 110.99 29.2392 110.99 28.7335C110.99 28.3244 110.837 27.9806 110.53 27.7022C110.229 27.4238 109.766 27.2136 109.141 27.0716L106.925 26.5858C105.703 26.3074 104.8 25.8642 104.214 25.2562C103.635 24.6483 103.345 23.8784 103.345 22.9466C103.345 22.1738 103.561 21.4977 103.993 20.9181C104.425 20.3386 105.021 19.8869 105.783 19.563C106.544 19.2335 107.416 19.0687 108.399 19.0687C109.814 19.0687 110.928 19.3755 111.74 19.9892C112.553 20.5971 113.089 21.4125 113.351 22.4352Z" fill="white"/>
</svg>
