<svg viewBox="0 0 106 104" fill="none" xmlns="http://www.w3.org/2000/svg">
<path d="M97.2322 29.4666C96.3563 28.5999 95.4804 27.7332 94.1666 27.2999C94.1666 28.5999 94.1666 29.4666 93.7287 30.3332L77.5248 83.6332C77.0868 84.4999 76.6489 85.3666 75.773 85.7999C74.8971 86.2332 73.5833 86.6666 72.7074 86.6666H21.906C17.5265 86.6666 14.8989 85.3666 14.023 82.7666C13.585 81.8999 13.585 81.0332 14.023 80.5999C14.4609 80.1666 14.8989 79.7332 16.2127 79.7332H63.9485C67.4521 79.7332 69.6418 79.2999 70.9556 77.9999C72.2694 76.6999 73.5833 74.0999 74.8971 69.7666L89.7872 20.7999C90.6631 18.1999 90.2251 15.5999 88.9113 13.8666C87.5975 12.1332 85.4077 10.8332 82.7801 10.8332H40.7375C40.2996 10.8332 39.4237 10.8332 38.1099 11.2666C36.796 10.3999 35.9201 10.3999 35.4822 10.3999C34.6063 10.3999 34.1684 10.8332 33.7304 10.8332C32.8545 11.2666 32.4166 11.6999 31.9787 12.1332C31.5407 12.5666 31.1028 13.4332 30.6648 13.8666C30.6648 14.7332 30.2269 15.5999 29.7889 16.0332C29.7889 16.4666 29.351 17.3332 28.9131 17.7666C28.9131 18.6332 28.4751 19.0666 28.0372 19.4999C28.0372 19.9332 27.5992 20.3666 27.1613 20.7999C26.7233 21.2332 26.7233 21.6666 26.2854 22.0999C25.8475 22.0999 25.8475 22.5332 25.8475 22.9666C25.8475 23.3999 25.8475 23.8332 25.8475 24.2666C25.8475 24.6999 25.8475 25.5666 25.8475 25.5666C25.8475 26.8666 25.4095 28.5999 24.5336 30.7666C23.6577 32.9332 22.7818 34.6666 22.3439 35.5332C22.3439 35.5332 21.906 35.9666 21.0301 36.8332C20.1542 37.2666 20.1542 38.1332 19.7162 38.5666C19.7162 38.5666 19.7162 39.4332 19.7162 39.8666C19.7162 40.7332 19.7162 41.1666 19.7162 41.5999C19.7162 42.8999 19.2783 44.6332 18.4024 46.3666C17.5265 48.5332 17.0886 49.8332 16.2127 51.1332C16.2127 51.1332 15.7748 51.5666 15.3368 52.4332C14.8989 52.8666 14.4609 53.7332 14.4609 53.7332C14.4609 54.1666 14.4609 54.5999 14.4609 55.0332C14.4609 55.8999 14.4609 56.3332 14.4609 56.7666C14.023 58.0666 13.585 59.7999 12.7092 61.5332C11.8333 63.2666 10.9574 64.9999 10.0815 66.2999C10.0815 66.7332 9.64355 67.1666 9.20561 67.5999C9.20561 68.8999 8.76766 69.3332 8.32972 69.7666C8.32972 70.1999 7.89178 70.6332 7.89178 71.0666C7.89178 71.4999 7.89178 71.4999 7.89178 71.9332C7.89178 72.3666 7.89178 72.7999 7.89178 73.2332C7.89178 73.6666 7.89178 74.5332 7.89178 75.3999C7.89178 76.2666 7.89178 76.6999 7.89178 76.6999C7.01589 78.8666 7.01589 81.0332 7.89178 83.6332C9.20561 86.2332 10.9574 88.8332 13.585 90.5666C16.2127 92.2999 18.8404 93.5999 21.906 93.5999H72.2694C74.4592 93.5999 77.0868 92.7332 78.8386 91.4332C81.0283 89.6999 82.3421 87.9666 83.218 85.7999L98.1081 36.8332C98.984 33.7999 98.546 31.1999 97.2322 29.4666ZM38.9858 29.4666L39.8616 25.9999C39.8616 25.5666 40.2996 25.1332 40.7375 24.6999C41.1755 24.2666 41.6134 24.2666 42.0514 24.2666H75.335C75.773 24.2666 76.2109 24.2666 76.2109 24.6999C76.2109 25.1332 76.6489 25.5666 76.2109 25.9999L74.8971 29.4666C74.8971 29.8999 74.4592 30.3332 74.0212 30.7666C73.5833 31.1999 73.1453 31.1999 72.7074 31.1999H40.2996C39.8616 31.1999 39.4237 31.1999 38.9858 30.7666C38.9858 30.3332 38.9858 29.8999 38.9858 29.4666ZM34.1684 43.3332L35.4822 39.8666C35.4822 39.4332 35.9201 38.9999 36.3581 38.5666C36.796 38.1332 37.234 38.1332 37.6719 38.1332H70.9556C71.3936 38.1332 71.8315 38.1332 72.2694 38.5666C72.2694 38.9999 72.7074 39.4332 72.2694 39.8666L70.9556 43.3332C70.9556 43.7666 70.5177 44.1999 70.0797 44.6332C69.6418 45.0666 69.2038 45.0666 68.7659 45.0666H35.4822C35.0443 45.0666 34.6063 45.0666 34.6063 44.6332C34.1684 44.1999 34.1684 43.7666 34.1684 43.3332Z" fill="url(#paint0_linear_3936_1963)"/>
<path opacity="0.4" d="M52.3535 63.5918L43.8411 53.7759C43.3659 53.228 42.7124 52.9245 42.0416 52.8777C41.3708 52.83 40.681 53.037 40.1331 53.5122L30.3171 62.0246C29.2224 62.974 29.1045 64.6312 30.0539 65.726C30.529 66.2739 31.1807 66.5764 31.8506 66.624C32.5204 66.6716 33.2085 66.4635 33.7563 65.9893L39.8905 60.6697C40.8287 59.8561 42.249 59.9571 43.0636 60.8954L43.064 60.8898C43.064 60.8898 43.0684 60.8939 43.0701 60.8959L48.3897 67.0301C48.8648 67.578 49.5166 67.8804 50.1864 67.9281C50.8562 67.9757 51.5443 67.7676 52.0912 67.2933C53.1859 66.3439 53.3038 64.6866 52.3544 63.5919L52.3535 63.5918Z" fill="#05E87A"/>
<defs>
<linearGradient id="paint0_linear_3936_1963" x1="7.4188" y1="51.9999" x2="98.5811" y2="51.9999" gradientUnits="userSpaceOnUse">
<stop stop-color="#00E676"/>
<stop offset="1" stop-color="#00AB58"/>
</linearGradient>
</defs>
</svg>
