<?xml version="1.0" encoding="UTF-8" standalone="no"?>
<!-- Generator: Adobe Illustrator 26.3.1, SVG Export Plug-In . SVG Version: 6.00 Build 0)  -->

<svg
   version="1.1"
   id="Layer_2"
   x="0px"
   y="0px"
   viewBox="0 0 2135 895"
   style="enable-background:new 0 0 2135 895;"
   xml:space="preserve"
   sodipodi:docname="eth-platform-distribution-dark-1b89117eaea02d52c9c3b5c8c23ddbd3.svg"
   inkscape:version="1.1.2 (0a00cf5339, 2022-02-04)"
   inkscape:export-filename="/home/ryan/Downloads/eth-platform-distribution-light-1b89117eaea02d52c9c3b5c8c23ddbd3.png"
   inkscape:export-xdpi="96"
   inkscape:export-ydpi="96"
   xmlns:inkscape="http://www.inkscape.org/namespaces/inkscape"
   xmlns:sodipodi="http://sodipodi.sourceforge.net/DTD/sodipodi-0.dtd"
   xmlns="http://www.w3.org/2000/svg"
   xmlns:svg="http://www.w3.org/2000/svg"><defs
   id="defs829" /><sodipodi:namedview
   id="namedview827"
   pagecolor="#ffffff"
   bordercolor="#666666"
   borderopacity="1.0"
   inkscape:pageshadow="2"
   inkscape:pageopacity="0.0"
   inkscape:pagecheckerboard="0"
   showgrid="false"
   inkscape:snap-text-baseline="true"
   inkscape:zoom="0.36510539"
   inkscape:cx="1302.3637"
   inkscape:cy="447.8159"
   inkscape:window-width="1728"
   inkscape:window-height="1016"
   inkscape:window-x="0"
   inkscape:window-y="0"
   inkscape:window-maximized="1"
   inkscape:current-layer="light_00000132802235477318810300000006044774604240054205_" />
<style
   type="text/css"
   id="style436">
	.st0{fill:#005CFF;}
	.st1{fill:#FF0000;}
	.st2{fill:#DFE400;}
	.st3{fill:#00CE00;}
	.st4{enable-background:new    ;}
	.st5{fill:#00F700;}
	.st6{fill:#00A700;}
	.st7{fill:#00D600;}
	.st8{opacity:0.7;fill:url(#SVGID_1_);enable-background:new    ;}
	.st9{fill:#C1C600;}
	.st10{fill:#D5BB00;}
	.st11{fill:#E9EE00;}
	.st12{opacity:0.7;fill:url(#SVGID_00000170996450431619576130000006392492061819779005_);enable-background:new    ;}
	.st13{fill:#3F06B2;}
	.st14{opacity:0.7;fill:url(#SVGID_00000007400571573556731660000007329047549984308659_);enable-background:new    ;}
	.st15{fill:#2769F7;}
	.st16{fill:#F30000;}
	.st17{opacity:0.7;fill:url(#SVGID_00000123422197940517263920000004271973047245377458_);enable-background:new    ;}
	.st18{fill:url(#SVGID_00000052086484980521640330000008379545687661305479_);}
</style>
<g
   id="g824">
	<g
   id="light_00000132802235477318810300000006044774604240054205_">
		<circle
   class="st0"
   cx="1142.4"
   cy="291.2"
   r="38"
   id="circle438" />
		<circle
   class="st1"
   cx="1142.4"
   cy="400.6"
   r="38"
   id="circle440" />
		<circle
   class="st2"
   cx="1142.4"
   cy="511.6"
   r="38"
   id="circle442" />
		<circle
   class="st3"
   cx="1142.4"
   cy="620.9"
   r="38"
   id="circle444" />
		
		
		
		
	<text
   xml:space="preserve"
   style="font-style:normal;font-weight:normal;font-size:40px;line-height:1.25;font-family:sans-serif;fill:#ffffff;fill-opacity:1;stroke:none"
   x="1203.2266"
   y="302.23517"
   id="text34837"><tspan
     sodipodi:role="line"
     id="tspan34835"
     x="1203.2266"
     y="302.23517"><tspan
   style="font-style:normal;font-variant:normal;font-weight:bold;font-stretch:normal;font-family:sans-serif;-inkscape-font-specification:'sans-serif Bold';fill:#ffffff;fill-opacity:1"
   id="tspan35503">25%</tspan> GMI for Platform Owned Liquidity</tspan></text><text
   xml:space="preserve"
   style="font-style:normal;font-weight:normal;font-size:40px;line-height:1.25;font-family:sans-serif;fill:#ffffff;fill-opacity:1;stroke:none"
   x="1203.2266"
   y="411.63516"
   id="text39151"><tspan
     sodipodi:role="line"
     id="tspan39149"
     x="1203.2266"
     y="411.63516"><tspan
   style="font-style:normal;font-variant:normal;font-weight:bold;font-stretch:normal;font-family:sans-serif;-inkscape-font-specification:'sans-serif Bold';fill:#ffffff;fill-opacity:1"
   id="tspan39147">25%</tspan> NRG for Platform Owned Liquidity</tspan></text><text
   xml:space="preserve"
   style="font-style:normal;font-weight:normal;font-size:40px;line-height:1.25;font-family:sans-serif;fill:#ffffff;fill-opacity:1;stroke:none"
   x="1203.2266"
   y="522.63513"
   id="text46449"><tspan
     sodipodi:role="line"
     id="tspan46447"
     x="1203.2266"
     y="522.63513"><tspan
   style="font-style:normal;font-variant:normal;font-weight:bold;font-stretch:normal;font-family:sans-serif;-inkscape-font-specification:'sans-serif Bold';fill:#ffffff;fill-opacity:1"
   id="tspan46445">25%</tspan> ETH for Platform Owned Liquidity</tspan></text><text
   xml:space="preserve"
   style="font-style:normal;font-weight:normal;font-size:40px;line-height:1.25;font-family:sans-serif;fill:#ffffff;fill-opacity:1;stroke:none"
   x="1203.2266"
   y="631.93518"
   id="text59233"><tspan
     sodipodi:role="line"
     id="tspan59231"
     x="1203.2266"
     y="631.93518"><tspan
   style="font-style:normal;font-variant:normal;font-weight:bold;font-stretch:normal;font-family:sans-serif;-inkscape-font-specification:'sans-serif Bold';fill:#ffffff;fill-opacity:1"
   id="tspan59229">25%</tspan> For GonnaMakeIt Operations</tspan></text></g>
	<g
   id="g822">
		<g
   class="st4"
   id="g766">
			<polygon
   class="st5"
   points="410,437.3 437.8,449.7 92.3,455.7 64.5,443.3    "
   id="polygon753" />
			<polygon
   class="st6"
   points="465.5,28.7 493.3,41.2 437.8,449.7 410,437.3    "
   id="polygon755" />
			<path
   class="st7"
   d="M465.5,28.7L410,437.3l-345.5,6C95.1,217.7,274.7,32.1,465.5,28.7z"
   id="path757" />
			
				<linearGradient
   id="SVGID_1_"
   gradientUnits="userSpaceOnUse"
   x1="519.992"
   y1="810.408"
   x2="117.609"
   y2="410.154"
   gradientTransform="matrix(1 0 0 -1 0 893.8898)">
				<stop
   offset="0.2226"
   style="stop-color:#FFFFFF"
   id="stop759" />
				<stop
   offset="1"
   style="stop-color:#FFFFFF;stop-opacity:0"
   id="stop761" />
			</linearGradient>
			<path
   class="st8"
   d="M458.5,35l-53.8,396.3l-333.2,5.8c7.8-52.1,23.7-102.7,47.2-150.7c11.8-24.1,25.5-47.3,40.8-69.1     c15.1-21.6,31.9-41.9,49.8-60.5c17.9-18.5,37.1-35.4,57.2-50.1c20.2-14.9,41.3-27.7,62.9-38.1C371.7,48.1,415.1,36.8,458.5,35      M465.5,28.7C274.7,32,95.1,217.6,64.5,443.3l345.5-6L465.5,28.7L465.5,28.7z"
   id="path764" />
		</g>
		<g
   class="st4"
   id="g781">
			<path
   class="st9"
   d="M372.2,854.1l27.8,12.4c-42.1,0.7-81.3-7.5-116.4-23.1L255.8,831C290.9,846.6,330.1,854.8,372.2,854.1"
   id="path768" />
			<polygon
   class="st10"
   points="427.7,445.6 455.5,458 400,866.5 372.2,854.1    "
   id="polygon770" />
			<path
   class="st11"
   d="M427.7,445.6l-55.5,408.5c-190.8,3.3-320.7-176.9-290-402.5L427.7,445.6z"
   id="path772" />
			
				<linearGradient
   id="SVGID_00000130633488951294888310000011075835807322193559_"
   gradientUnits="userSpaceOnUse"
   x1="188.0607"
   y1="97.2758"
   x2="280.0005"
   y2="434.9829"
   gradientTransform="matrix(1 0 0 -1 0 893.8898)">
				<stop
   offset="0"
   style="stop-color:#FFFFFF"
   id="stop774" />
				<stop
   offset="1"
   style="stop-color:#FFFFFF;stop-opacity:0"
   id="stop776" />
			</linearGradient>
			<path
   style="opacity:0.7;fill:url(#SVGID_00000130633488951294888310000011075835807322193559_);enable-background:new    ;"
   d="     M420.8,451.7l-53.9,396.4c-39.8,0-77.5-8.2-112.1-24.2c-33.5-15.6-63.3-38.1-88.6-67.1c-15.7-18-29.6-38.4-41.1-60.6     c-11.6-22.4-21-46.8-27.8-72.4c-6.9-26.1-11.3-53.7-12.8-82C83,514.4,84,486,87.6,457.5L420.8,451.7 M427.7,445.6l-345.5,6     C51.8,675.2,179,854.1,367,854.1c1.7,0,3.5,0,5.2,0L427.7,445.6L427.7,445.6z"
   id="path779" />
		</g>
		<g
   class="st4"
   id="g796">
			<polygon
   class="st13"
   points="745.4,426.7 801.1,451.6 455.6,457.6 399.9,432.8    "
   id="polygon783" />
			<path
   class="st0"
   d="M455.4,24.2c190.8-3.3,320.7,176.9,290,402.5l-345.5,6L455.4,24.2z"
   id="path785" />
			
				<linearGradient
   id="SVGID_00000115507918683491172520000012471843854598458274_"
   gradientUnits="userSpaceOnUse"
   x1="294.6043"
   y1="922.9297"
   x2="726.168"
   y2="372.7316"
   gradientTransform="matrix(1 0 0 -1 0 893.8898)">
				<stop
   offset="0"
   style="stop-color:#FFFFFF"
   id="stop787" />
				<stop
   offset="1"
   style="stop-color:#FFFFFF;stop-opacity:0"
   id="stop789" />
			</linearGradient>
			<path
   style="opacity:0.7;fill:url(#SVGID_00000115507918683491172520000012471843854598458274_);enable-background:new    ;"
   d="     M460.7,30.2c39.8,0,77.5,8.2,112.1,24.2c33.5,15.6,63.3,38.1,88.6,67.1c15.7,18,29.6,38.4,41.1,60.6c11.6,22.4,21,46.8,27.8,72.4     c6.9,26.1,11.3,53.7,12.8,82c1.5,27.4,0.5,55.8-3.1,84.3l-333.3,5.8L460.7,30.2 M460.6,24.2c-1.7,0-3.5,0-5.2,0l-55.5,408.5     l345.5-6C775.8,203.2,648.6,24.2,460.6,24.2L460.6,24.2z"
   id="path792" />
			<path
   class="st15"
   d="M803,435.5c-0.5,5.3-1.2,10.7-1.9,16.1l-55.7-24.8c0.7-5.4,1.4-10.7,1.9-16.1c5.6-53.9,1.9-104.9-9.5-151.2     c-3.6-14.6-8-28.7-13.1-42.3c-3.8-10.2-8.1-20.1-12.7-29.6c-3.9-8.1-8.1-15.9-12.6-23.5c-4-6.9-8.3-13.5-12.8-20     c-4.2-6-8.6-11.9-13.1-17.5c-4.4-5.4-8.9-10.6-13.6-15.7c-4.5-4.9-9.2-9.6-14-14.1c-4.7-4.4-9.6-8.6-14.5-12.7     c-5-4-10-7.9-15.2-11.5c-5.2-3.7-10.6-7.2-16.1-10.5c-5.6-3.4-11.3-6.5-17.1-9.4c-3.6-1.8-7.3-3.6-11.1-5.3l55.7,24.8     c3.7,1.7,7.4,3.4,11.1,5.3c5.8,2.9,11.5,6.1,17.1,9.4c5.5,3.3,10.9,6.8,16.1,10.5c5.2,3.7,10.3,7.5,15.3,11.5s9.8,8.3,14.5,12.7     c4.8,4.5,9.5,9.2,14,14.1c4.7,5,9.2,10.3,13.6,15.7c4.5,5.6,8.9,11.5,13.1,17.5c4.5,6.4,8.7,13.1,12.8,20     c4.5,7.6,8.7,15.5,12.6,23.5c4.6,9.6,8.9,19.4,12.7,29.6c5.1,13.6,9.5,27.7,13.1,42.3C805,330.6,808.6,381.6,803,435.5z"
   id="path794" />
		</g>
		<g
   class="st4"
   id="g820">
			<path
   class="st16"
   d="M773.3,439.5c-30.7,225.6-210.2,411.2-401,414.5l55.5-408.5L773.3,439.5z"
   id="path798" />
			
				<linearGradient
   id="SVGID_00000110430405444356481140000008266559673483335075_"
   gradientUnits="userSpaceOnUse"
   x1="360.1333"
   y1="36.8066"
   x2="696.9811"
   y2="553.3438"
   gradientTransform="matrix(1 0 0 -1 0 893.8898)">
				<stop
   offset="0"
   style="stop-color:#FFFFFF"
   id="stop800" />
				<stop
   offset="1"
   style="stop-color:#FFFFFF;stop-opacity:0"
   id="stop802" />
			</linearGradient>
			<path
   style="opacity:0.7;fill:url(#SVGID_00000110430405444356481140000008266559673483335075_);enable-background:new    ;"
   d="     M766.3,445.7c-7.8,52.1-23.7,102.7-47.2,150.7c-11.8,24.1-25.5,47.3-40.8,69.1c-15.1,21.6-31.9,41.9-49.8,60.5     c-17.9,18.5-37.1,35.4-57.2,50.1c-20.2,14.9-41.3,27.7-62.9,38.1c-42.4,20.5-85.9,31.9-129.3,33.6L433,451.5L766.3,445.7      M773.3,439.5l-345.5,6L372.3,854C563.1,850.7,742.6,665.1,773.3,439.5L773.3,439.5z"
   id="path805" />
			
				<linearGradient
   id="SVGID_00000052097590872439057840000006354950742440401588_"
   gradientUnits="userSpaceOnUse"
   x1="857.4725"
   y1="433.0212"
   x2="385.5678"
   y2="-5.6837"
   gradientTransform="matrix(1 0 0 -1 0 893.8898)">
				<stop
   offset="0.3042"
   style="stop-color:#E4273D"
   id="stop807" />
				<stop
   offset="0.4582"
   style="stop-color:#E42336"
   id="stop809" />
				<stop
   offset="0.68"
   style="stop-color:#E51623"
   id="stop811" />
				<stop
   offset="0.9418"
   style="stop-color:#E60304"
   id="stop813" />
				<stop
   offset="0.9711"
   style="stop-color:#E60000"
   id="stop815" />
			</linearGradient>
			<path
   style="fill:url(#SVGID_00000052097590872439057840000006354950742440401588_);"
   d="M801.1,451.9     c-1.5,11.4-3.5,22.7-5.8,33.8c-2.4,11.8-5.3,23.6-8.5,35.1c-2.8,10-5.9,19.9-9.2,29.7c-3,8.8-6.3,17.4-9.7,26     c-3.3,8.1-6.7,16-10.3,23.9c-3.5,7.6-7.2,15.1-11,22.4c-3.7,7.2-7.6,14.3-11.7,21.3c-4,6.9-8.1,13.7-12.4,20.3     c-4.3,6.7-8.8,13.3-13.3,19.7c-4.6,6.5-9.4,13-14.3,19.2c-5,6.4-10.2,12.7-15.5,18.8c-5.5,6.4-11.2,12.6-17,18.6     c-6.2,6.5-12.6,12.7-19,18.8c-7.1,6.6-14.3,13-21.7,19c-8.4,6.9-17,13.5-25.8,19.7c-10.9,7.7-22.2,14.9-33.6,21.4     c-50.7,29-106,45.8-162.2,46.8L372.3,854c56.2-1,111.4-17.8,162.2-46.8c11.4-6.5,22.7-13.7,33.6-21.4     c8.8-6.2,17.4-12.8,25.8-19.7c7.4-6.1,14.6-12.4,21.7-19c6.5-6.1,12.8-12.3,19-18.8c5.8-6,11.4-12.3,17-18.7     c5.3-6.1,10.4-12.4,15.5-18.8c4.9-6.3,9.7-12.7,14.3-19.2s9-13,13.3-19.7s8.4-13.4,12.4-20.3c4-7,8-14.1,11.7-21.3     c3.8-7.4,7.5-14.8,11-22.4c3.6-7.9,7.1-15.8,10.3-23.9c3.5-8.6,6.7-17.2,9.7-26c3.4-9.8,6.4-19.6,9.2-29.6     c3.2-11.6,6.1-23.3,8.5-35.1c2.3-11.2,4.2-22.4,5.8-33.8L801.1,451.9z"
   id="path818" />
		</g>
	</g>
</g>
</svg>
