<?xml version="1.0" encoding="UTF-8" standalone="no"?>
<!-- Generator: Adobe Illustrator 26.3.1, SVG Export Plug-In . SVG Version: 6.00 Build 0)  -->

<svg
   version="1.1"
   id="Layer_2"
   x="0px"
   y="0px"
   viewBox="0 0 2135 895"
   style="enable-background:new 0 0 2135 895;"
   xml:space="preserve"
   sodipodi:docname="nrg-platform-distribution-dark-82a16a1d8dc9e287e55c57dd274f8ce4.svg"
   inkscape:version="1.1.2 (0a00cf5339, 2022-02-04)"
   inkscape:export-filename="/home/ryan/Downloads/nrg-platform-distribution-light-82a16a1d8dc9e287e55c57dd274f8ce4.png"
   inkscape:export-xdpi="96"
   inkscape:export-ydpi="96"
   xmlns:inkscape="http://www.inkscape.org/namespaces/inkscape"
   xmlns:sodipodi="http://sodipodi.sourceforge.net/DTD/sodipodi-0.dtd"
   xmlns="http://www.w3.org/2000/svg"
   xmlns:svg="http://www.w3.org/2000/svg"><defs
   id="defs65285" /><sodipodi:namedview
   id="namedview65283"
   pagecolor="#ffffff"
   bordercolor="#666666"
   borderopacity="1.0"
   inkscape:pageshadow="2"
   inkscape:pageopacity="0.0"
   inkscape:pagecheckerboard="0"
   showgrid="false"
   inkscape:zoom="0.64730679"
   inkscape:cx="682.82923"
   inkscape:cy="447.2377"
   inkscape:window-width="1728"
   inkscape:window-height="1016"
   inkscape:window-x="0"
   inkscape:window-y="0"
   inkscape:window-maximized="1"
   inkscape:current-layer="Layer_2" />
<style
   type="text/css"
   id="style64920">
	.st0{fill:#005CFF;}
	.st1{fill:#FF0000;}
	.st2{fill:#DFE400;}
	.st3{fill:#00CE00;}
	.st4{enable-background:new    ;}
	.st5{fill:#00F700;}
	.st6{fill:#00A700;}
	.st7{fill:#00D600;}
	.st8{opacity:0.7;fill:url(#SVGID_1_);enable-background:new    ;}
	.st9{fill:#C1C600;}
	.st10{fill:#D5BB00;}
	.st11{fill:#E9EE00;}
	.st12{opacity:0.7;fill:url(#SVGID_00000173871353850908927290000013219754640542114186_);enable-background:new    ;}
	.st13{fill:#3F06B2;}
	.st14{opacity:0.7;fill:url(#SVGID_00000057833445119919940540000014761250202923446954_);enable-background:new    ;}
	.st15{fill:#2769F7;}
	.st16{fill:#F30000;}
	.st17{opacity:0.7;fill:url(#SVGID_00000084495987782702208590000011355816887952588976_);enable-background:new    ;}
	.st18{fill:url(#SVGID_00000068675341234799797940000001979217948227611023_);}
</style>
<g
   id="g65280">
	<g
   id="light_00000032642998994603982140000013316915660257877155_">
		<circle
   class="st0"
   cx="1155.1"
   cy="264.1"
   r="38"
   id="circle64922" />
		<circle
   class="st1"
   cx="1155.1"
   cy="373.5"
   id="circle64924"
   r="38" />
		<circle
   class="st2"
   cx="1155.1"
   cy="484.5"
   r="38"
   id="circle64926" />
		<circle
   class="st3"
   cx="1155.1"
   cy="593.8"
   r="38"
   id="circle64928" />
		
		
		
		
	</g>
	<g
   id="g65278">
		<g
   class="st4"
   id="g65222">
			<polygon
   class="st5"
   points="413.4,429.4 441.2,441.8 95.7,447.8 67.8,435.4    "
   id="polygon65209" />
			<polygon
   class="st6"
   points="468.9,20.9 496.7,33.3 441.2,441.8 413.4,429.4    "
   id="polygon65211" />
			<path
   class="st7"
   d="M468.9,20.9l-55.5,408.5l-345.5,6C98.5,209.8,278,24.2,468.9,20.9z"
   id="path65213" />
			
				<linearGradient
   id="SVGID_1_"
   gradientUnits="userSpaceOnUse"
   x1="523.3268"
   y1="818.2734"
   x2="120.944"
   y2="418.0196"
   gradientTransform="matrix(1 0 0 -1 0 893.8898)">
				<stop
   offset="0.2226"
   style="stop-color:#FFFFFF"
   id="stop65215" />
				<stop
   offset="1"
   style="stop-color:#FFFFFF;stop-opacity:0"
   id="stop65217" />
			</linearGradient>
			<path
   class="st8"
   d="M461.9,27.1l-53.8,396.3l-333.2,5.8c7.8-52.1,23.7-102.7,47.2-150.7c11.8-24.1,25.5-47.3,40.8-69.1     c15.1-21.6,31.9-41.9,49.8-60.5c17.9-18.5,37.1-35.4,57.2-50.1c20.1-14.8,41.2-27.6,62.8-38C375.1,40.2,418.5,28.9,461.9,27.1      M468.9,20.9C278,24.2,98.5,209.8,67.8,435.4l345.5-6L468.9,20.9L468.9,20.9z"
   id="path65220" />
		</g>
		<g
   class="st4"
   id="g65237">
			<path
   class="st9"
   d="M375.6,846.2l27.8,12.4c-42.1,0.7-81.3-7.5-116.4-23.1l-27.8-12.4C294.3,838.7,333.5,846.9,375.6,846.2"
   id="path65224" />
			<polygon
   class="st10"
   points="431.1,437.7 458.9,450.1 403.4,858.6 375.6,846.2    "
   id="polygon65226" />
			<path
   class="st11"
   d="M431.1,437.7l-55.5,408.5c-190.8,3.3-320.7-176.9-290-402.5L431.1,437.7z"
   id="path65228" />
			
				<linearGradient
   id="SVGID_00000101806244030951899370000001747598803167788729_"
   gradientUnits="userSpaceOnUse"
   x1="191.4554"
   y1="105.1563"
   x2="283.3951"
   y2="442.8636"
   gradientTransform="matrix(1 0 0 -1 0 893.8898)">
				<stop
   offset="0"
   style="stop-color:#FFFFFF"
   id="stop65230" />
				<stop
   offset="1"
   style="stop-color:#FFFFFF;stop-opacity:0"
   id="stop65232" />
			</linearGradient>
			<path
   style="opacity:0.7;fill:url(#SVGID_00000101806244030951899370000001747598803167788729_);enable-background:new    ;"
   d="     M424.1,443.8l-53.9,396.4c-39.8,0-77.5-8.2-112.1-24.2c-33.5-15.6-63.3-38.1-88.6-67.1c-15.7-18-29.6-38.4-41.1-60.6     c-11.6-22.4-21-46.8-27.8-72.4c-6.9-26.1-11.3-53.7-12.8-82c-1.5-27.4-0.5-55.8,3.1-84.3L424.1,443.8 M431.1,437.7l-345.5,6     c-30.4,223.6,96.8,402.5,284.8,402.5c1.7,0,3.5,0,5.2,0L431.1,437.7L431.1,437.7z"
   id="path65235" />
		</g>
		<g
   class="st4"
   id="g65252">
			<polygon
   class="st13"
   points="748.8,418.8 804.5,443.7 459,449.7 403.3,424.9    "
   id="polygon65239" />
			<path
   class="st0"
   d="M458.8,16.3c190.8-3.3,320.7,176.9,290,402.5l-345.5,6L458.8,16.3z"
   id="path65241" />
			
				<linearGradient
   id="SVGID_00000003064061652774573480000008473375876685507206_"
   gradientUnits="userSpaceOnUse"
   x1="298.0084"
   y1="930.8245"
   x2="729.5721"
   y2="380.6265"
   gradientTransform="matrix(1 0 0 -1 0 893.8898)">
				<stop
   offset="0"
   style="stop-color:#FFFFFF"
   id="stop65243" />
				<stop
   offset="1"
   style="stop-color:#FFFFFF;stop-opacity:0"
   id="stop65245" />
			</linearGradient>
			<path
   style="opacity:0.7;fill:url(#SVGID_00000003064061652774573480000008473375876685507206_);enable-background:new    ;"
   d="     M464.1,22.3c39.8,0,77.5,8.2,112.1,24.2c33.5,15.6,63.3,38.1,88.6,67.1c15.7,18,29.6,38.4,41.1,60.6c11.6,22.4,21,46.8,27.8,72.4     c6.9,26.1,11.3,53.7,12.8,82c1.5,27.4,0.5,55.8-3.1,84.3l-333.3,5.8L464.1,22.3 M464,16.3c-1.7,0-3.5,0-5.2,0l-55.5,408.5     l345.5-6C779.2,195.3,652,16.3,464,16.3L464,16.3z"
   id="path65248" />
			<path
   class="st15"
   d="M806.4,427.6c-0.5,5.3-1.2,10.7-1.9,16.1l-55.7-24.8c0.7-5.4,1.4-10.7,1.9-16.1     c5.6-53.9,1.9-104.9-9.5-151.2c-3.6-14.6-8-28.7-13.1-42.3c-3.8-10.2-8.1-20.1-12.7-29.6c-3.9-8.1-8.1-15.9-12.6-23.5     c-4-6.9-8.3-13.5-12.8-20c-4.2-6-8.6-11.9-13.1-17.5c-4.4-5.4-8.9-10.6-13.6-15.7c-4.5-4.9-9.2-9.6-14-14.1     c-4.7-4.4-9.6-8.6-14.5-12.7c-5-4-10-7.9-15.2-11.5c-5.2-3.7-10.6-7.2-16.1-10.5c-5.6-3.4-11.3-6.5-17.1-9.4     c-3.6-1.8-7.3-3.6-11.1-5.3L631,64.3c3.7,1.7,7.4,3.4,11.1,5.3c5.8,2.9,11.5,6.1,17.1,9.4c5.5,3.3,10.9,6.8,16.1,10.5     c5.2,3.7,10.3,7.5,15.3,11.5s9.8,8.3,14.5,12.7c4.8,4.5,9.5,9.2,14,14.1c4.7,5,9.2,10.3,13.6,15.7c4.5,5.6,8.9,11.5,13.1,17.5     c4.5,6.4,8.7,13.1,12.8,20c4.5,7.6,8.7,15.5,12.6,23.5c4.6,9.6,8.9,19.4,12.7,29.6c5.1,13.6,9.5,27.7,13.1,42.3     C808.3,322.7,812,373.7,806.4,427.6z"
   id="path65250" />
		</g>
		<g
   class="st4"
   id="g65276">
			<path
   class="st16"
   d="M776.7,431.6c-30.7,225.6-210.2,411.2-401,414.5l55.5-408.5L776.7,431.6z"
   id="path65254" />
			
				<linearGradient
   id="SVGID_00000175323427178445033730000012011404413484453771_"
   gradientUnits="userSpaceOnUse"
   x1="363.5373"
   y1="44.6787"
   x2="700.3852"
   y2="561.2158"
   gradientTransform="matrix(1 0 0 -1 0 893.8898)">
				<stop
   offset="0"
   style="stop-color:#FFFFFF"
   id="stop65256" />
				<stop
   offset="1"
   style="stop-color:#FFFFFF;stop-opacity:0"
   id="stop65258" />
			</linearGradient>
			<path
   style="opacity:0.7;fill:url(#SVGID_00000175323427178445033730000012011404413484453771_);enable-background:new    ;"
   d="     M769.7,437.8c-7.8,52.1-23.7,102.7-47.2,150.7c-11.8,24.1-25.5,47.3-40.8,69.1c-15.1,21.6-31.9,41.9-49.8,60.5     c-17.9,18.5-37.1,35.4-57.2,50.1c-20.2,14.9-41.3,27.7-62.9,38.1c-42.4,20.5-85.9,31.9-129.3,33.6l53.8-396.3L769.7,437.8      M776.7,431.6l-345.5,6l-55.5,408.5C566.5,842.9,746,657.3,776.7,431.6L776.7,431.6z"
   id="path65261" />
			
				<linearGradient
   id="SVGID_00000108287600364936575320000017819452593565400199_"
   gradientUnits="userSpaceOnUse"
   x1="860.9072"
   y1="440.8534"
   x2="389.0026"
   y2="2.1486"
   gradientTransform="matrix(1 0 0 -1 0 893.8898)">
				<stop
   offset="0.3042"
   style="stop-color:#E4273D"
   id="stop65263" />
				<stop
   offset="0.4582"
   style="stop-color:#E42336"
   id="stop65265" />
				<stop
   offset="0.68"
   style="stop-color:#E51623"
   id="stop65267" />
				<stop
   offset="0.9418"
   style="stop-color:#E60304"
   id="stop65269" />
				<stop
   offset="0.9711"
   style="stop-color:#E60000"
   id="stop65271" />
			</linearGradient>
			<path
   style="fill:url(#SVGID_00000108287600364936575320000017819452593565400199_);"
   d="M804.5,444.1     c-1.5,11.4-3.5,22.7-5.8,33.8c-2.4,11.8-5.3,23.6-8.5,35.1c-2.8,10-5.9,19.9-9.2,29.7c-3,8.8-6.3,17.4-9.7,26     c-3.3,8.1-6.7,16-10.3,23.9c-3.5,7.6-7.2,15.1-11,22.4c-3.7,7.2-7.6,14.3-11.7,21.3c-4,6.9-8.1,13.7-12.4,20.3     c-4.3,6.7-8.8,13.3-13.3,19.7c-4.6,6.5-9.4,13-14.3,19.2c-5,6.4-10.2,12.7-15.5,18.8c-5.5,6.4-11.2,12.6-17,18.6     c-6.2,6.5-12.6,12.7-19,18.8c-7.1,6.6-14.3,13-21.7,19c-8.4,6.9-17,13.5-25.8,19.7c-10.9,7.7-22.2,14.9-33.6,21.4     c-50.7,29-106,45.8-162.2,46.8l-27.8-12.4c56.2-1,111.4-17.8,162.2-46.8c11.4-6.5,22.7-13.7,33.6-21.4     c8.8-6.2,17.4-12.8,25.8-19.7c7.4-6.1,14.6-12.4,21.7-19c6.5-6.1,12.8-12.3,19-18.8c5.8-6,11.4-12.3,17-18.7     c5.3-6.1,10.4-12.4,15.5-18.8c4.9-6.3,9.7-12.7,14.3-19.2s9-13,13.3-19.7s8.4-13.4,12.4-20.3c4-7,8-14.1,11.7-21.3     c3.8-7.4,7.5-14.8,11-22.4c3.6-7.9,7.1-15.8,10.3-23.9c3.5-8.6,6.7-17.2,9.7-26c3.4-9.8,6.4-19.6,9.2-29.6     c3.2-11.6,6.1-23.3,8.5-35.1c2.3-11.2,4.2-22.4,5.8-33.8L804.5,444.1z"
   id="path65274" />
		</g>
	</g>
</g>
<text
   xml:space="preserve"
   style="font-style:normal;font-weight:normal;font-size:40px;line-height:1.25;font-family:sans-serif;fill:#ffffff;fill-opacity:1;stroke:none"
   x="1220.635"
   y="275.13516"
   id="text34837"
   inkscape:export-filename="/home/ryan/Downloads/text34837.png"
   inkscape:export-xdpi="96"
   inkscape:export-ydpi="96"><tspan
     sodipodi:role="line"
     id="tspan34835"
     x="1220.635"
     y="275.13516"><tspan
   style="font-style:normal;font-variant:normal;font-weight:bold;font-stretch:normal;font-family:sans-serif;-inkscape-font-specification:'sans-serif Bold';fill:#ffffff;fill-opacity:1"
   id="tspan35503">25%</tspan> GMI for Platform Owned Liquidity</tspan></text><text
   xml:space="preserve"
   style="font-style:normal;font-weight:normal;font-size:40px;line-height:1.25;font-family:sans-serif;fill:#ffffff;fill-opacity:1;stroke:none"
   x="1220.635"
   y="384.53516"
   id="text65330"
   inkscape:export-filename="/home/ryan/Downloads/text34837.png"
   inkscape:export-xdpi="96"
   inkscape:export-ydpi="96"><tspan
     sodipodi:role="line"
     x="1220.635"
     y="384.53516"
     id="tspan65888"><tspan
   style="font-style:normal;font-variant:normal;font-weight:bold;font-stretch:normal;font-family:sans-serif;-inkscape-font-specification:'sans-serif Bold';fill:#ffffff;fill-opacity:1"
   id="tspan65326">25%</tspan> NRG for Platform Owned Liquidity</tspan></text><text
   xml:space="preserve"
   style="font-style:normal;font-weight:normal;font-size:40px;line-height:1.25;font-family:sans-serif;fill:#ffffff;fill-opacity:1;stroke:none"
   x="1220.635"
   y="495.53516"
   id="text76642"
   inkscape:export-filename="/home/ryan/Downloads/text34837.png"
   inkscape:export-xdpi="96"
   inkscape:export-ydpi="96"><tspan
     sodipodi:role="line"
     x="1220.635"
     y="495.53516"
     id="tspan76640"><tspan
   style="font-style:normal;font-variant:normal;font-weight:bold;font-stretch:normal;font-family:sans-serif;-inkscape-font-specification:'sans-serif Bold';fill:#ffffff;fill-opacity:1"
   id="tspan76638">25%</tspan> For Energi Operations</tspan></text><text
   xml:space="preserve"
   style="font-style:normal;font-weight:normal;font-size:40px;line-height:1.25;font-family:sans-serif;fill:#ffffff;fill-opacity:1;stroke:none"
   x="1220.635"
   y="604.83514"
   id="text81082"
   inkscape:export-filename="/home/ryan/Downloads/text34837.png"
   inkscape:export-xdpi="96"
   inkscape:export-ydpi="96"><tspan
     sodipodi:role="line"
     x="1220.635"
     y="604.83514"
     id="tspan81376"><tspan
   style="font-style:normal;font-variant:normal;font-weight:bold;font-stretch:normal;font-family:sans-serif;-inkscape-font-specification:'sans-serif Bold';fill:#ffffff;fill-opacity:1"
   id="tspan81078">25%</tspan> For Other Expenses</tspan></text></svg>
